<?xml version="1.0" encoding="UTF-8" standalone="no"?><!DOCTYPE svg PUBLIC "-//W3C//DTD SVG 1.1//EN" "http://www.w3.org/Graphics/SVG/1.1/DTD/svg11.dtd"><svg width="100%" height="100%" viewBox="0 0 1215 585" version="1.1" xmlns="http://www.w3.org/2000/svg" xmlns:xlink="http://www.w3.org/1999/xlink" xml:space="preserve" xmlns:serif="http://www.serif.com/" style="fill-rule:evenodd;clip-rule:evenodd;stroke-linejoin:round;stroke-miterlimit:2;"><path d="M128.872,360.374c-24.681,-0 -46.706,-5.858 -66.076,-17.574c-19.37,-11.715 -34.678,-27.727 -45.925,-48.034c-11.247,-20.307 -16.871,-42.801 -16.871,-67.482c-0,-24.994 5.624,-47.488 16.871,-67.482c11.247,-19.995 26.633,-35.928 46.159,-47.8c19.526,-11.872 41.317,-17.808 65.374,-17.808c19.37,-0 36.631,3.827 51.783,11.481c15.152,7.655 27.102,18.355 35.85,32.101l-9.373,12.653l0,-150.429l61.39,0l0,360.374l-58.109,-0l-0,-54.83l6.56,12.185c-8.747,13.746 -20.932,24.29 -36.552,31.632c-15.621,7.342 -32.648,11.013 -51.081,11.013Zm6.561,-56.235c14.059,-0 26.399,-3.281 37.022,-9.842c10.622,-6.56 18.979,-15.62 25.071,-27.18c6.092,-11.559 9.138,-24.837 9.138,-39.833c0,-14.684 -3.046,-27.883 -9.138,-39.599c-6.092,-11.716 -14.449,-20.854 -25.071,-27.415c-10.623,-6.561 -22.963,-9.841 -37.022,-9.841c-13.746,0 -26.087,3.359 -37.021,10.076c-10.935,6.717 -19.448,15.777 -25.541,27.18c-6.092,11.403 -9.138,24.603 -9.138,39.599c0,14.996 3.046,28.274 9.138,39.833c6.093,11.56 14.606,20.62 25.541,27.18c10.934,6.561 23.275,9.842 37.021,9.842Z" style="fill-rule:nonzero;"/><g transform="matrix(0.973505,0,0,1,-14.3996,0)"><g transform="matrix(481.381,0,0,481.381,401.385,360.374)"></g><text x="280.077px" y="360.374px" style="font-family:'PlusJakartaSans-Bold', 'Plus Jakarta Sans';font-weight:700;font-size:481.381px;">i</text></g><g transform="matrix(0.973505,0,0,1,-4.92365,0)"><g transform="matrix(481.381,0,0,481.381,759.034,360.374)"></g><text x="637.726px" y="360.374px" style="font-family:'PlusJakartaSans-Bold', 'Plus Jakarta Sans';font-weight:700;font-size:481.381px;">i</text></g><g transform="matrix(1,0,0,0.731707,1.13687e-13,-251.468)"><g transform="matrix(468.626,0,0,468.626,654.29,733.086)"></g><text x="348.745px" y="733.086px" style="font-family:'PlusJakartaSans-Bold', 'Plus Jakarta Sans';font-weight:700;font-size:468.626px;">g</text></g><g transform="matrix(0.876463,0,0,1,-48.2963,2.27374e-13)"><g transform="matrix(534.679,0,0,534.679,1164.76,357.166)"></g><text x="870.153px" y="357.166px" style="font-family:'PlusJakartaSans-Bold', 'Plus Jakarta Sans';font-weight:700;font-size:534.679px;">t</text></g><path d="M996.049,360.374c-17.808,-0 -33.272,-2.968 -46.394,-8.904c-13.122,-5.936 -23.275,-14.449 -30.461,-25.54c-7.185,-11.091 -10.778,-23.978 -10.778,-38.662c-0,-14.059 3.124,-26.634 9.372,-37.724c6.249,-11.091 15.934,-20.386 29.055,-27.884c13.122,-7.498 29.68,-12.809 49.675,-15.933l83.415,-13.59l0,46.863l-71.7,12.184c-12.184,2.187 -21.244,6.092 -27.18,11.715c-5.936,5.624 -8.904,12.966 -8.904,22.026c0,8.748 3.359,15.699 10.076,20.854c6.717,5.155 15.074,7.732 25.071,7.732c12.809,0 24.134,-2.734 33.975,-8.201c9.842,-5.467 17.496,-13.043 22.963,-22.728c5.467,-9.685 8.201,-20.307 8.201,-31.867l0,-65.608c0,-10.934 -4.296,-20.072 -12.887,-27.414c-8.592,-7.342 -19.917,-11.013 -33.976,-11.013c-13.121,0 -24.759,3.515 -34.912,10.544c-10.154,7.03 -17.574,16.324 -22.26,27.883l-50.143,-24.368c4.999,-13.434 12.887,-25.072 23.666,-34.913c10.778,-9.841 23.509,-17.573 38.193,-23.197c14.683,-5.623 30.617,-8.435 47.8,-8.435c20.932,-0 39.364,3.827 55.298,11.481c15.933,7.655 28.351,18.277 37.255,31.867c8.904,13.59 13.356,29.445 13.356,47.565l0,175.267l-58.109,-0l-0,-49.206l13.121,-0.937c-6.561,10.934 -14.371,20.073 -23.431,27.414c-9.06,7.342 -19.37,12.966 -30.93,16.871c-11.559,3.905 -24.368,5.858 -38.427,5.858Z" style="fill-rule:nonzero;"/><g transform="matrix(0.984395,0,0,1,2.43964,0)"><g transform="matrix(476.055,0,0,476.055,1259.33,360.374)"></g><text x="1139.37px" y="360.374px" style="font-family:'PlusJakartaSans-Bold', 'Plus Jakarta Sans';font-weight:700;font-size:476.055px;">l</text></g><g transform="matrix(354.926,0,0,354.926,176.753,580.653)"></g><text x="-25.555px" y="580.653px" style="font-family:'PlusJakartaSans-ExtraLight', 'Plus Jakarta Sans';font-weight:250;font-size:354.926px;">u</text><path d="M154.23,584.912l0,-188.315l15.7,0l0,44.417l0,-44.417c15.433,0 14.29,-0.654 29.708,-1.32c19.366,-0.836 27.975,-1.793 45.652,-1.793c17.212,0 32.621,3.113 46.227,9.338c13.607,6.226 24.364,14.742 32.272,25.55c7.909,10.808 11.863,22.956 11.863,36.444c-0,13.488 -3.954,25.593 -11.863,36.314c-7.908,10.722 -18.665,19.238 -32.272,25.55c-13.606,6.312 -29.015,9.467 -46.227,9.467c-17.677,0 -33.435,-3.415 -47.275,-10.245c-13.839,-6.831 -24.131,-15.866 -30.876,-27.106l2.791,-4.41l0,90.526l-15.7,0Zm91.06,-60.437c14.188,0 26.806,-2.594 37.854,-7.782c11.048,-5.187 19.77,-12.277 26.167,-21.269c6.396,-8.992 9.594,-19.195 9.594,-30.608c-0,-11.413 -3.198,-21.616 -9.594,-30.608c-6.397,-8.992 -15.119,-16.082 -26.167,-21.269c-11.048,-5.188 -23.666,-7.782 -37.854,-7.782c-13.956,-0 -26.574,2.594 -37.855,7.782c-11.28,5.187 -20.177,12.234 -26.689,21.14c-6.513,8.905 -9.769,19.065 -9.769,30.478c-0,11.586 3.256,21.875 9.769,30.867c6.512,8.992 15.409,16.082 26.689,21.269c11.281,5.188 23.899,7.782 37.855,7.782Z" style="fill-rule:nonzero;"/><g transform="matrix(1,0,0,0.980821,0,-18.0557)"><g transform="matrix(354.042,0,0,354.042,490.001,610.51)"></g><text x="310.855px" y="610.51px" style="font-family:'PlusJakartaSans-ExtraLight', 'Plus Jakarta Sans';font-weight:250;font-size:354.042px;">s</text></g><g transform="matrix(1,0,0,0.818822,0,-51.2445)"><g transform="matrix(356.079,0,0,356.079,588.051,774.781)"></g><text x="453.097px" y="774.781px" style="font-family:'PlusJakartaSans-ExtraLight', 'Plus Jakarta Sans';font-weight:250;font-size:356.079px;">t</text></g><g transform="matrix(0.994012,0,0,1,-1.80455,-1.13687e-13)"><g transform="matrix(358.224,0,0,358.224,665.736,584.912)"></g><text x="543.94px" y="584.912px" style="font-family:'PlusJakartaSans-ExtraLight', 'Plus Jakarta Sans';font-weight:250;font-size:358.224px;">r</text></g><g transform="matrix(1,0,0,0.977554,0,-19.824)"><g transform="matrix(355.225,0,0,355.225,820.224,614.359)"></g><text x="597.498px" y="614.359px" style="font-family:'PlusJakartaSans-ExtraLight', 'Plus Jakarta Sans';font-weight:250;font-size:355.225px;">e</text></g><path d="M856.833,584.499c-11.238,0 -21.364,-2.141 -30.378,-6.424c-9.014,-4.283 -16.213,-10.302 -21.598,-18.057c-5.385,-7.755 -8.078,-16.726 -8.078,-26.912c0,-8.334 1.932,-16.379 5.795,-24.134c3.863,-7.755 10.185,-14.527 18.964,-20.314c8.78,-5.788 20.545,-9.839 35.295,-12.154l77.263,-12.848l-0,14.931l-71.995,11.807c-18.262,3.009 -31.022,8.334 -38.28,15.974c-7.258,7.639 -10.887,16.32 -10.887,26.043c0,11.576 4.331,20.72 12.994,27.433c8.663,6.714 19.433,10.071 32.31,10.071c14.282,-0 26.632,-3.357 37.051,-10.071c10.419,-6.713 18.555,-15.568 24.408,-26.564c5.853,-10.997 8.78,-22.861 8.78,-35.594l-0,-44.101c-0,-13.658 -4.741,-24.597 -14.224,-32.815c-9.482,-8.218 -22.066,-12.327 -37.753,-12.327c-11.94,-0 -22.945,2.893 -33.012,8.681c-10.068,5.787 -17.911,13.427 -23.53,22.918l-14.048,-7.292c3.512,-6.945 8.722,-13.369 15.628,-19.272c6.907,-5.904 15.043,-10.707 24.408,-14.411c9.365,-3.704 19.55,-5.556 30.554,-5.556c13.345,-0 25.11,2.546 35.295,7.639c10.185,5.093 18.145,12.154 23.881,21.183c5.736,9.028 8.604,19.446 8.604,31.252l0,131.327l-15.803,0l-0,-44.514l1.404,0c-3.043,7.64 -8.077,14.816 -15.101,21.53c-7.024,6.713 -15.452,12.154 -25.286,16.321c-9.833,4.167 -20.72,6.25 -32.661,6.25Z" style="fill-rule:nonzero;"/><g transform="matrix(0.993365,0,0,1,1.19367,-2.27374e-13)"><g transform="matrix(354.926,0,0,354.926,1248.24,584.912)"></g><text x="925.257px" y="584.912px" style="font-family:'PlusJakartaSans-ExtraLight', 'Plus Jakarta Sans';font-weight:250;font-size:354.926px;">m</text></g></svg>